# xmcd
#
# Track frame offsets: 
#        150
#        19343
#        32430
#        62876
#        91800
#        113479
#        131095
#
# Disc length: 2347 seconds
#
# Revision: 0
# Processed by: cddbd v1.5.2PL0 Copyright (c) Steve Scherf et al.
# Submitted via: ExactAudioCopy v1.0b4
#
DISCID=52092907
DTITLE=John Lee Hooker - Never Get Out of These Blues Alive (LP)
DYEAR=1978
DGENRE=Blues
TTITLE0=Bumble Bee Blues
TTITLE1=Hit the Road
TTITLE2=Country Boy
TTITLE3=Boogie With the Hook
TTITLE4=T.B. Sheets
TTITLE5=Letter to My Baby
TTITLE6=Never Get Out of These Blues Alive
EXTD=
EXTT0=
EXTT1=
EXTT2=
EXTT3=
EXTT4=
EXTT5=
EXTT6=
PLAYORDER=
